<svg xmlns="http://www.w3.org/2000/svg" xmlns:xlink="http://www.w3.org/1999/xlink" width="500" zoomAndPan="magnify" viewBox="0 0 375 374.999991" height="500" preserveAspectRatio="xMidYMid meet" version="1.0"><defs><g/><clipPath id="e9158555a8"><path d="M 95.234375 95.082031 L 279.734375 95.082031 L 279.734375 279.582031 L 95.234375 279.582031 Z M 95.234375 95.082031 " clip-rule="nonzero"/></clipPath><clipPath id="b01318a603"><path d="M 185 198 L 220.222656 198 L 220.222656 215.875 L 185 215.875 Z M 185 198 " clip-rule="nonzero"/></clipPath><clipPath id="1e3d52d4df"><path d="M 180 140.875 L 212 140.875 L 212 211 L 180 211 Z M 180 140.875 " clip-rule="nonzero"/></clipPath></defs><g clip-path="url(#e9158555a8)"><path fill="#7ed957" d="M 187.058594 279.757812 C 136.1875 279.757812 94.796875 238.367188 94.796875 187.496094 C 94.796875 136.621094 136.1875 95.234375 187.058594 95.234375 C 237.933594 95.234375 279.320312 136.621094 279.320312 187.496094 C 279.320312 238.367188 237.933594 279.757812 187.058594 279.757812 Z M 187.058594 98.199219 C 137.820312 98.199219 97.765625 138.257812 97.765625 187.496094 C 97.765625 236.734375 137.820312 276.792969 187.058594 276.792969 C 236.296875 276.792969 276.355469 236.734375 276.355469 187.496094 C 276.355469 138.257812 236.296875 98.199219 187.058594 98.199219 Z M 187.058594 98.199219 " fill-opacity="1" fill-rule="nonzero"/></g><path fill="#7ed957" d="M 277.839844 187.496094 L 96.28125 187.496094 C 96.28125 237.632812 136.925781 278.273438 187.058594 278.273438 C 237.199219 278.273438 277.839844 237.632812 277.839844 187.496094 Z M 277.839844 187.496094 " fill-opacity="1" fill-rule="nonzero"/><g clip-path="url(#b01318a603)"><path fill="#008037" d="M 185.722656 215.671875 C 188.859375 209.664062 194.015625 204.734375 200.160156 201.871094 C 206.300781 199.007812 213.394531 198.230469 220.011719 199.695312 C 211.898438 209.863281 198.71875 216.15625 185.722656 215.671875 " fill-opacity="1" fill-rule="nonzero"/></g><path fill="#008037" d="M 175.300781 211.277344 C 178.953125 201.496094 179.285156 190.507812 176.234375 180.523438 C 173.183594 170.535156 166.769531 161.609375 158.273438 155.539062 C 154.984375 175.304688 161.351562 196.890625 175.300781 211.277344 " fill-opacity="1" fill-rule="nonzero"/><g clip-path="url(#1e3d52d4df)"><path fill="#008037" d="M 182.707031 210.988281 C 179.113281 197.917969 179.945312 183.675781 185.035156 171.113281 C 190.128906 158.550781 199.453125 147.75 211.132812 140.875 C 213.113281 166.8125 202.398438 193.988281 182.707031 210.988281 " fill-opacity="1" fill-rule="nonzero"/></g><g fill="#ffffff" fill-opacity="1"><g transform="translate(136.516227, 244.970492)"><g><path d="M 3.171875 -3.859375 C 1.503906 -4.234375 0.671875 -4.941406 0.671875 -5.984375 C 0.671875 -6.753906 0.9375 -7.332031 1.46875 -7.71875 C 2.007812 -8.09375 2.640625 -8.28125 3.359375 -8.28125 C 4.953125 -8.28125 5.894531 -7.6875 6.1875 -6.5 L 5.28125 -6.5 C 5.125 -7.207031 4.484375 -7.5625 3.359375 -7.5625 C 2.578125 -7.5625 2.03125 -7.328125 1.71875 -6.859375 C 1.59375 -6.679688 1.53125 -6.460938 1.53125 -6.203125 C 1.53125 -5.703125 1.804688 -5.316406 2.359375 -5.046875 C 2.609375 -4.910156 3.148438 -4.734375 3.984375 -4.515625 C 4.816406 -4.296875 5.421875 -4.054688 5.796875 -3.796875 C 6.316406 -3.421875 6.578125 -2.90625 6.578125 -2.25 C 6.578125 -1.425781 6.253906 -0.800781 5.609375 -0.375 C 5.054688 -0.0195312 4.382812 0.15625 3.59375 0.15625 C 1.78125 0.15625 0.726562 -0.53125 0.4375 -1.90625 L 1.4375 -1.90625 C 1.59375 -1.039062 2.3125 -0.609375 3.59375 -0.609375 C 4.5 -0.609375 5.132812 -0.863281 5.5 -1.375 C 5.644531 -1.570312 5.71875 -1.84375 5.71875 -2.1875 C 5.71875 -2.519531 5.582031 -2.796875 5.3125 -3.015625 C 4.9375 -3.316406 4.222656 -3.597656 3.171875 -3.859375 Z M 3.171875 -3.859375 "/></g></g></g><g fill="#ffffff" fill-opacity="1"><g transform="translate(147.988242, 244.970492)"><g><path d="M 2.21875 -3 L 5.1875 -3 L 3.703125 -6.75 Z M 7.28125 0 L 6.375 0 L 5.5 -2.21875 L 1.90625 -2.21875 L 1.03125 0 L 0.125 0 L 3.703125 -8.71875 Z M 7.28125 0 "/></g></g></g><g fill="#ffffff" fill-opacity="1"><g transform="translate(159.976259, 244.970492)"><g><path d="M 1.734375 -6.015625 L 1.734375 0 L 0.90625 0 L 0.90625 -8.671875 L 5.484375 -2.15625 L 5.484375 -8.15625 L 6.328125 -8.15625 L 6.328125 0.5 Z M 1.734375 -6.015625 "/></g></g></g><g fill="#ffffff" fill-opacity="1"><g transform="translate(171.784272, 244.970492)"><g><path d="M 3.828125 0.484375 L 0.125 -8.15625 L 1.03125 -8.15625 L 3.828125 -1.578125 L 6.609375 -8.15625 L 7.53125 -8.15625 Z M 3.828125 0.484375 "/></g></g></g><g fill="#ffffff" fill-opacity="1"><g transform="translate(184.012283, 244.970492)"><g><path d="M 2.21875 -3 L 5.1875 -3 L 3.703125 -6.75 Z M 7.28125 0 L 6.375 0 L 5.5 -2.21875 L 1.90625 -2.21875 L 1.03125 0 L 0.125 0 L 3.703125 -8.71875 Z M 7.28125 0 "/></g></g></g><g fill="#ffffff" fill-opacity="1"><g transform="translate(196.000301, 244.970492)"><g><path d="M 1.734375 -4.03125 L 3.640625 -4.03125 C 4.109375 -4.03125 4.492188 -4.191406 4.796875 -4.515625 C 5.109375 -4.835938 5.265625 -5.238281 5.265625 -5.71875 C 5.265625 -6.195312 5.117188 -6.59375 4.828125 -6.90625 C 4.523438 -7.207031 4.128906 -7.359375 3.640625 -7.359375 L 1.734375 -7.359375 Z M 6.109375 -5.703125 C 6.109375 -4.984375 5.859375 -4.390625 5.359375 -3.921875 C 4.910156 -3.503906 4.367188 -3.273438 3.734375 -3.234375 L 6.234375 0 L 5.109375 0 L 2.71875 -3.234375 L 1.734375 -3.234375 L 1.734375 0 L 0.90625 0 L 0.90625 -8.15625 L 3.515625 -8.15625 C 4.242188 -8.15625 4.859375 -7.925781 5.359375 -7.46875 C 5.859375 -6.988281 6.109375 -6.398438 6.109375 -5.703125 Z M 6.109375 -5.703125 "/></g></g></g><g fill="#ffffff" fill-opacity="1"><g transform="translate(207.112318, 244.970492)"><g><path d="M 7.234375 -4.078125 C 7.234375 -3.484375 7.125 -2.941406 6.90625 -2.453125 C 6.6875 -1.941406 6.390625 -1.507812 6.015625 -1.15625 C 5.640625 -0.789062 5.195312 -0.507812 4.6875 -0.3125 C 4.164062 -0.101562 3.613281 0 3.03125 0 L 0.90625 0 L 0.90625 -8.15625 L 3.03125 -8.15625 C 3.613281 -8.15625 4.164062 -8.054688 4.6875 -7.859375 C 5.195312 -7.648438 5.640625 -7.367188 6.015625 -7.015625 C 6.390625 -6.648438 6.6875 -6.21875 6.90625 -5.71875 C 7.125 -5.21875 7.234375 -4.671875 7.234375 -4.078125 Z M 6.421875 -4.078125 C 6.421875 -5.003906 6.09375 -5.78125 5.4375 -6.40625 C 4.789062 -7.007812 4 -7.3125 3.0625 -7.3125 L 1.734375 -7.3125 L 1.734375 -0.84375 L 3.0625 -0.84375 C 4 -0.84375 4.789062 -1.144531 5.4375 -1.75 C 6.09375 -2.375 6.421875 -3.148438 6.421875 -4.078125 Z M 6.421875 -4.078125 "/></g></g></g><g fill="#ffffff" fill-opacity="1"><g transform="translate(219.472337, 244.970492)"><g><path d="M 1.734375 0 L 0.90625 0 L 0.90625 -8.15625 L 1.734375 -8.15625 L 1.734375 -4.484375 L 5.453125 -4.484375 L 5.453125 -8.15625 L 6.28125 -8.15625 L 6.28125 0 L 5.453125 0 L 5.453125 -3.640625 L 1.734375 -3.640625 Z M 1.734375 0 "/></g></g></g><g fill="#ffffff" fill-opacity="1"><g transform="translate(231.244347, 244.970492)"><g><path d="M 1.734375 -6.015625 L 1.734375 0 L 0.90625 0 L 0.90625 -8.671875 L 5.484375 -2.15625 L 5.484375 -8.15625 L 6.328125 -8.15625 L 6.328125 0.5 Z M 1.734375 -6.015625 "/></g></g></g><g fill="#0097b2" fill-opacity="1"><g transform="translate(161.337057, 128.716804)"><g><path d="M 1.890625 -19.390625 L 6.90625 -20.703125 C 6.695312 -20.160156 6.585938 -19.648438 6.578125 -19.171875 C 6.578125 -18.691406 6.597656 -18.3125 6.640625 -18.03125 C 6.691406 -17.75 6.71875 -17.609375 6.71875 -17.609375 L 9.140625 -8.421875 C 9.210938 -8.140625 9.253906 -7.722656 9.265625 -7.171875 C 9.273438 -6.617188 9.140625 -5.988281 8.859375 -5.28125 C 8.578125 -4.582031 8.046875 -3.851562 7.265625 -3.09375 C 6.535156 -2.351562 5.789062 -1.773438 5.03125 -1.359375 C 4.28125 -0.953125 3.566406 -0.65625 2.890625 -0.46875 C 2.160156 -0.28125 1.5 -0.195312 0.90625 -0.21875 C 0.3125 -0.238281 -0.148438 -0.328125 -0.484375 -0.484375 L 1.625 -3.96875 C 1.945312 -3.789062 2.332031 -3.613281 2.78125 -3.4375 C 3.226562 -3.269531 3.679688 -3.148438 4.140625 -3.078125 C 4.597656 -3.015625 5.003906 -3.03125 5.359375 -3.125 C 5.609375 -3.1875 5.804688 -3.300781 5.953125 -3.46875 C 6.117188 -3.65625 6.21875 -3.960938 6.25 -4.390625 C 6.289062 -4.828125 6.285156 -5.3125 6.234375 -5.84375 C 6.179688 -6.375 6.109375 -6.878906 6.015625 -7.359375 C 5.921875 -7.847656 5.835938 -8.25 5.765625 -8.5625 C 5.691406 -8.882812 5.65625 -9.046875 5.65625 -9.046875 L 3.609375 -16.796875 C 3.578125 -16.878906 3.5 -17.070312 3.375 -17.375 C 3.257812 -17.6875 3.078125 -18.03125 2.828125 -18.40625 C 2.585938 -18.78125 2.273438 -19.109375 1.890625 -19.390625 Z M 1.890625 -19.390625 "/></g></g></g><g fill="#0097b2" fill-opacity="1"><g transform="translate(175.800964, 124.966747)"><g><path d="M 16.984375 -0.078125 L 10.84375 -0.078125 C 11.476562 -0.753906 11.695312 -1.492188 11.5 -2.296875 C 11.363281 -2.859375 11.207031 -3.375 11.03125 -3.84375 C 10.851562 -4.3125 10.703125 -4.6875 10.578125 -4.96875 C 10.460938 -5.25 10.40625 -5.390625 10.40625 -5.390625 L 4.734375 -5.390625 L 4.265625 -3.734375 C 4.117188 -3.265625 4.003906 -2.847656 3.921875 -2.484375 C 3.835938 -2.117188 3.796875 -1.78125 3.796875 -1.46875 C 3.796875 -0.976562 3.953125 -0.515625 4.265625 -0.078125 L -0.34375 -0.078125 C 0.195312 -0.617188 0.632812 -1.148438 0.96875 -1.671875 C 1.3125 -2.191406 1.648438 -2.878906 1.984375 -3.734375 L 5.859375 -15.15625 C 6.222656 -16.132812 6.40625 -16.90625 6.40625 -17.46875 C 6.40625 -17.789062 6.351562 -18.171875 6.25 -18.609375 L 9.15625 -18.609375 L 13.796875 -5.859375 C 14.054688 -5.179688 14.332031 -4.46875 14.625 -3.71875 C 14.925781 -2.976562 15.265625 -2.28125 15.640625 -1.625 C 16.015625 -0.976562 16.460938 -0.460938 16.984375 -0.078125 Z M 5.328125 -7.140625 L 9.75 -7.109375 L 7.5 -13.078125 Z M 5.328125 -7.140625 "/></g></g></g><g fill="#0097b2" fill-opacity="1"><g transform="translate(195.087092, 125.58727)"><g><path d="M 0.390625 0.015625 C 0.785156 -0.234375 1.101562 -0.550781 1.34375 -0.9375 C 1.59375 -1.320312 1.773438 -1.671875 1.890625 -1.984375 C 2.015625 -2.296875 2.085938 -2.484375 2.109375 -2.546875 L 5.25 -14.453125 C 5.269531 -14.535156 5.300781 -14.738281 5.34375 -15.0625 C 5.394531 -15.394531 5.40625 -15.785156 5.375 -16.234375 C 5.351562 -16.691406 5.238281 -17.132812 5.03125 -17.5625 L 10.03125 -16.234375 C 9.59375 -15.859375 9.25 -15.460938 9 -15.046875 C 8.757812 -14.640625 8.585938 -14.300781 8.484375 -14.03125 C 8.390625 -13.757812 8.34375 -13.625 8.34375 -13.625 L 4.90625 -0.59375 L 8.6875 0.40625 C 9.070312 0.476562 9.445312 0.445312 9.8125 0.3125 L 11.6875 -0.484375 L 12.109375 3.109375 Z M 0.390625 0.015625 "/></g></g></g></svg>